<?xml version="1.0" encoding="UTF-8" standalone="no"?>
<svg
   xmlns:dc="http://purl.org/dc/elements/1.1/"
   xmlns:cc="http://creativecommons.org/ns#"
   xmlns:rdf="http://www.w3.org/1999/02/22-rdf-syntax-ns#"
   xmlns:svg="http://www.w3.org/2000/svg"
   xmlns="http://www.w3.org/2000/svg"
   id="svg8"
   version="1.1"
   viewBox="0 0 477.83697 104.17096"
   height="393.71701"
   width="1805.998">
  <defs
     id="defs2">
    <filter
       height="1.2937629"
       y="-0.14688145"
       width="1.4491304"
       x="-0.22456519"
       id="filter5384"
       style="color-interpolation-filters:sRGB">
      <feGaussianBlur
         id="feGaussianBlur5386"
         stdDeviation="0.49276378" />
    </filter>
    <filter
       height="1.0377128"
       y="-0.018856402"
       width="1.0576586"
       x="-0.028829316"
       id="filter5422"
       style="color-interpolation-filters:sRGB">
      <feGaussianBlur
         id="feGaussianBlur5424"
         stdDeviation="0.063260215" />
    </filter>
    <filter
       height="1.0774105"
       y="-0.038705248"
       width="1.1183519"
       x="-0.059175964"
       id="filter5452"
       style="color-interpolation-filters:sRGB">
      <feGaussianBlur
         id="feGaussianBlur5454"
         stdDeviation="0.12984992" />
    </filter>
    <filter
       height="1.3135419"
       y="-0.15677094"
       width="1.4226205"
       x="-0.21131025"
       id="filter5610"
       style="color-interpolation-filters:sRGB">
      <feGaussianBlur
         id="feGaussianBlur5612"
         stdDeviation="0.60525154" />
    </filter>
    <filter
       height="1.060618"
       y="-0.030309049"
       width="1.0817066"
       x="-0.040853314"
       id="filter5652"
       style="color-interpolation-filters:sRGB">
      <feGaussianBlur
         id="feGaussianBlur5654"
         stdDeviation="0.1170153" />
    </filter>
    <filter
       height="1.0627084"
       y="-0.031354189"
       width="1.0845242"
       x="-0.042262048"
       id="filter5686"
       style="color-interpolation-filters:sRGB">
      <feGaussianBlur
         id="feGaussianBlur5688"
         stdDeviation="0.12105031" />
    </filter>
    <filter
       height="1.3510416"
       y="-0.17552076"
       width="1.3694277"
       x="-0.18471384"
       id="filter5788"
       style="color-interpolation-filters:sRGB">
      <feGaussianBlur
         id="feGaussianBlur5790"
         stdDeviation="0.58898393" />
    </filter>
    <filter
       height="1.0702083"
       y="-0.035104156"
       width="1.0738854"
       x="-0.036942769"
       id="filter5822"
       style="color-interpolation-filters:sRGB">
      <feGaussianBlur
         id="feGaussianBlur5824"
         stdDeviation="0.11779679" />
    </filter>
    <filter
       height="1.0702083"
       y="-0.035104156"
       width="1.0738854"
       x="-0.036942769"
       id="filter5860"
       style="color-interpolation-filters:sRGB">
      <feGaussianBlur
         id="feGaussianBlur5862"
         stdDeviation="0.11779679" />
    </filter>
    <filter
       height="1.3041832"
       y="-0.15209162"
       width="1.0408325"
       x="-0.020416258"
       id="filter6304"
       style="color-interpolation-filters:sRGB">
      <feGaussianBlur
         id="feGaussianBlur6306"
         stdDeviation="0.42179596" />
    </filter>
  </defs>
  <metadata
     id="metadata5">
    <rdf:RDF>
      <cc:Work
         rdf:about="">
        <dc:format>image/svg+xml</dc:format>
        <dc:type
           rdf:resource="http://purl.org/dc/dcmitype/StillImage" />
        <dc:title></dc:title>
      </cc:Work>
    </rdf:RDF>
  </metadata>
  <g
     style="display:inline"
     transform="translate(209.16057,-239.55624)"
     id="layer1">
    <flowRoot
       transform="scale(0.26458333)"
       style="font-style:normal;font-weight:normal;font-size:40px;line-height:1.25;font-family:sans-serif;letter-spacing:0px;word-spacing:0px;fill:#000000;fill-opacity:1;stroke:none"
       id="flowRoot3713"
       xml:space="preserve"><flowRegion
         id="flowRegion3715"><rect
           y="263.89001"
           x="213.14218"
           height="156.57364"
           width="352.54324"
           id="rect3717" /></flowRegion><flowPara
         id="flowPara3719" /></flowRoot>    <g
       id="text3723-1"
       style="font-style:normal;font-weight:normal;font-size:10.58333302px;line-height:1.25;font-family:sans-serif;letter-spacing:0px;word-spacing:0px;fill:#000000;fill-opacity:1;stroke:none;stroke-width:0.26458332;filter:url(#filter6304)"
       transform="matrix(7.9067971,0,0,7.9067971,-205.53187,-2014.3102)"
       aria-label=" lash ac">
      <path
         d="m 50.113703,291.066 v -0.14469 q 0,-0.1602 0.06201,-0.22738 0.06201,-0.0672 0.155029,-0.0672 0.09819,0 0.160197,0.0672 0.06201,0.0672 0.06201,0.22738 v 0.98185 q -0.0052,0.16019 -0.06718,0.22737 -0.05684,0.0672 -0.15503,0.0672 -0.08785,0 -0.149861,-0.0568 -0.05684,-0.062 -0.06718,-0.20154 -0.03101,-0.3669 -0.485758,-0.69763 -0.449585,-0.33073 -1.214396,-0.33073 -0.96635,0 -1.467611,0.60461 -0.501261,0.60462 -0.501261,1.38493 0,0.84233 0.552938,1.3901 0.552937,0.54777 1.431437,0.54777 0.506429,0 1.028361,-0.18604 0.527099,-0.18603 0.950846,-0.59944 0.10852,-0.10336 0.191203,-0.10336 0.08785,0 0.144694,0.062 0.06201,0.0568 0.06201,0.14469 0,0.22221 -0.521931,0.56327 -0.842326,0.55294 -1.875855,0.55294 -1.049031,0 -1.725993,-0.66663 -0.671793,-0.67179 -0.671793,-1.70015 0,-1.04903 0.687296,-1.7415 0.692464,-0.69246 1.741496,-0.69246 0.997355,0 1.674316,0.59428 z m -6.90914,4.03593 v -0.62529 q -0.945679,0.79582 -2.020548,0.79582 -0.780314,0 -1.219564,-0.39274 -0.43925,-0.39791 -0.43925,-0.97152 0,-0.63045 0.578776,-1.1007 0.578776,-0.47026 1.689819,-0.47026 0.299724,0 0.651124,0.0413 0.351399,0.0362 0.759643,0.11886 v -0.7028 q 0,-0.35657 -0.330729,-0.62012 -0.330729,-0.26355 -0.992188,-0.26355 -0.506429,0 -1.421101,0.29456 -0.165365,0.0517 -0.211874,0.0517 -0.08268,0 -0.144694,-0.062 -0.05684,-0.062 -0.05684,-0.15503 0,-0.0879 0.05168,-0.13953 0.07235,-0.0775 0.583943,-0.21187 0.806153,-0.21704 1.219564,-0.21704 0.821655,0 1.281575,0.40824 0.459921,0.40308 0.459921,0.91468 v 2.87321 h 0.578776 q 0.160197,0 0.227376,0.062 0.06718,0.0568 0.06718,0.15503 0,0.093 -0.06718,0.15503 -0.06718,0.062 -0.227376,0.062 z m 0,-2.16008 q -0.304891,-0.0879 -0.645955,-0.12919 -0.341065,-0.0413 -0.718303,-0.0413 -0.945678,0 -1.477946,0.40825 -0.403076,0.30489 -0.403076,0.72863 0,0.39274 0.304891,0.66146 0.310059,0.26872 0.89917,0.26872 0.563273,0 1.043864,-0.22221 0.485758,-0.22738 0.997355,-0.7183 z m -15.36857,-4.32531 v 2.67167 q 0.413412,-0.44959 0.79065,-0.63045 0.382405,-0.18604 0.852661,-0.18604 0.506429,0 0.857829,0.18087 0.356567,0.1757 0.594279,0.54777 0.237711,0.3669 0.237711,0.77514 v 2.69235 h 0.485759 q 0.160197,0 0.222208,0.062 0.06718,0.0568 0.06718,0.15503 0,0.093 -0.06718,0.15503 -0.06201,0.062 -0.222208,0.062 h -1.410767 q -0.160197,0 -0.227376,-0.062 -0.06718,-0.062 -0.06718,-0.15503 0,-0.0982 0.06718,-0.15503 0.06718,-0.062 0.227376,-0.062 h 0.485759 v -2.66134 q 0,-0.47026 -0.341065,-0.78548 -0.335897,-0.31523 -0.940511,-0.31523 -0.475423,0 -0.81132,0.23255 -0.242879,0.16536 -0.800985,0.78031 v 2.74919 h 0.490927 q 0.155029,0 0.222208,0.062 0.06718,0.0568 0.06718,0.15503 0,0.093 -0.06718,0.15503 -0.06718,0.062 -0.222208,0.062 h -1.415935 q -0.155029,0 -0.222208,-0.062 -0.06718,-0.062 -0.06718,-0.15503 0,-0.0982 0.06718,-0.15503 0.06718,-0.062 0.222208,-0.062 h 0.490926 v -5.61206 h -0.583943 q -0.15503,0 -0.222209,-0.062 -0.06718,-0.062 -0.06718,-0.16019 0,-0.093 0.06718,-0.15503 0.06718,-0.062 0.222209,-0.062 z m -3.482992,2.29443 q 0,-0.14986 0.06201,-0.21704 0.06201,-0.0672 0.15503,-0.0672 0.09819,0 0.160196,0.0672 0.06201,0.0672 0.06201,0.22738 v 0.74414 q 0,0.15503 -0.06201,0.2222 -0.06201,0.0672 -0.160196,0.0672 -0.08785,0 -0.149862,-0.0568 -0.05684,-0.0568 -0.06718,-0.18604 -0.03101,-0.31005 -0.320394,-0.51159 -0.423747,-0.28939 -1.121379,-0.28939 -0.728638,0 -1.131714,0.29456 -0.304891,0.2222 -0.304891,0.49609 0,0.31006 0.361735,0.51676 0.248047,0.1447 0.940511,0.22221 0.904338,0.0982 1.255738,0.22221 0.501261,0.18087 0.74414,0.50126 0.248047,0.3204 0.248047,0.69247 0,0.55293 -0.532267,0.98702 -0.532267,0.42891 -1.560628,0.42891 -1.028361,0 -1.684652,-0.52193 0,0.1757 -0.02067,0.22738 -0.02067,0.0517 -0.07751,0.0879 -0.05168,0.0362 -0.118856,0.0362 -0.09302,0 -0.155029,-0.0672 -0.06201,-0.0672 -0.06201,-0.22221 v -0.894 q 0,-0.15503 0.05684,-0.22221 0.06201,-0.0672 0.160197,-0.0672 0.09302,0 0.155029,0.0672 0.06718,0.062 0.06718,0.17053 0,0.23771 0.118855,0.39791 0.180868,0.24805 0.573609,0.41341 0.397908,0.1602 0.971517,0.1602 0.847493,0 1.260905,-0.31523 0.413411,-0.31522 0.413411,-0.66662 0,-0.40308 -0.418579,-0.64596 -0.423747,-0.24288 -1.235067,-0.32556 -0.806152,-0.0827 -1.157552,-0.21704 -0.351399,-0.13436 -0.54777,-0.40308 -0.19637,-0.26871 -0.19637,-0.57877 0,-0.55811 0.54777,-0.88367 0.54777,-0.33073 1.307414,-0.33073 0.899169,0 1.462443,0.43925 z m -6.531901,4.19096 v -0.62529 q -0.945679,0.79582 -2.020548,0.79582 -0.780314,0 -1.219564,-0.39274 -0.43925,-0.39791 -0.43925,-0.97152 0,-0.63045 0.578776,-1.1007 0.578776,-0.47026 1.68982,-0.47026 0.299723,0 0.651123,0.0413 0.351399,0.0362 0.759643,0.11886 v -0.7028 q 0,-0.35657 -0.330729,-0.62012 -0.330729,-0.26355 -0.992187,-0.26355 -0.50643,0 -1.421102,0.29456 -0.165365,0.0517 -0.211874,0.0517 -0.08268,0 -0.144694,-0.062 -0.05684,-0.062 -0.05684,-0.15503 0,-0.0879 0.05168,-0.13953 0.07235,-0.0775 0.583943,-0.21187 0.806153,-0.21704 1.219564,-0.21704 0.821655,0 1.281576,0.40824 0.45992,0.40308 0.45992,0.91468 v 2.87321 h 0.578776 q 0.160197,0 0.227376,0.062 0.06718,0.0568 0.06718,0.15503 0,0.093 -0.06718,0.15503 -0.06718,0.062 -0.227376,0.062 z m 0,-2.16008 q -0.304891,-0.0879 -0.645955,-0.12919 -0.341065,-0.0413 -0.718303,-0.0413 -0.945678,0 -1.477946,0.40825 -0.403076,0.30489 -0.403076,0.72863 0,0.39274 0.304891,0.66146 0.310059,0.26872 0.89917,0.26872 0.563273,0 1.043864,-0.22221 0.485758,-0.22738 0.997355,-0.7183 z m -7.374226,-4.32531 v 6.05131 h 1.705322 q 0.160197,0 0.227376,0.062 0.06718,0.0568 0.06718,0.15503 0,0.093 -0.06718,0.15503 -0.06718,0.062 -0.227376,0.062 H 8.3074697 q -0.1550293,0 -0.2222087,-0.062 -0.067179,-0.062 -0.067179,-0.15503 0,-0.0982 0.067179,-0.15503 0.067179,-0.062 0.2222087,-0.062 h 1.7053223 v -5.61206 H 8.7622223 q -0.1550293,0 -0.2273763,-0.062 -0.067179,-0.062 -0.067179,-0.16019 0,-0.093 0.067179,-0.15503 0.067179,-0.062 0.2273763,-0.062 z"
         style="font-style:normal;font-variant:normal;font-weight:normal;font-stretch:normal;font-family:'courier new';-inkscape-font-specification:'courier new';stroke-width:0.26458332"
         id="path909" />
    </g>
    <g
       id="text3723"
       style="font-style:normal;font-weight:normal;font-size:83.68026733px;line-height:1.25;font-family:sans-serif;letter-spacing:0px;word-spacing:0px;fill:#000000;fill-opacity:1;stroke:none;stroke-width:2.09200668"
       aria-label=" lash ac">
      <path
         d="m 190.67407,287.04762 v -1.14407 q 0,-1.26664 0.49031,-1.79782 0.49032,-0.53117 1.22579,-0.53117 0.77633,0 1.26664,0.53117 0.49031,0.53118 0.49031,1.79782 v 7.76331 q -0.0409,1.26664 -0.53117,1.79782 -0.44945,0.53117 -1.22578,0.53117 -0.69462,0 -1.18493,-0.44945 -0.44945,-0.49032 -0.53117,-1.59352 -0.24516,-2.90103 -3.8408,-5.51604 -3.55477,-2.61501 -9.60198,-2.61501 -7.64073,0 -11.6041,4.78057 -3.96337,4.78056 -3.96337,10.95034 0,6.6601 4.37197,10.99121 4.37196,4.33111 11.31808,4.33111 4.00423,0 8.13104,-1.47094 4.16767,-1.47095 7.51815,-4.73971 0.85805,-0.81719 1.5118,-0.81719 0.69461,0 1.14407,0.49032 0.49031,0.44945 0.49031,1.14406 0,1.75696 -4.12681,4.45369 -6.6601,4.37197 -14.832,4.37197 -8.29448,0 -13.64707,-5.27088 -5.31174,-5.31174 -5.31174,-13.44278 0,-8.29448 5.43431,-13.76965 5.47518,-5.47517 13.76966,-5.47517 7.88588,0 13.23848,4.69884 z m -54.62917,31.91127 v -4.944 q -7.47728,6.29237 -15.97606,6.29237 -6.16979,0 -9.64285,-3.10533 -3.47305,-3.14618 -3.47305,-7.68158 0,-4.98486 4.57626,-8.70308 4.57627,-3.71821 13.36106,-3.71821 2.36985,0 5.1483,0.32687 2.77844,0.28602 6.00634,0.93977 v -5.55689 q 0,-2.81931 -2.615,-4.90314 -2.61501,-2.08384 -7.84503,-2.08384 -4.00423,0 -11.23636,2.329 -1.30751,0.40859 -1.67524,0.40859 -0.65375,0 -1.14407,-0.49031 -0.44945,-0.49032 -0.44945,-1.22579 0,-0.69461 0.40859,-1.10321 0.57204,-0.61289 4.61713,-1.67523 6.37408,-1.7161 9.64284,-1.7161 6.49666,0 10.13316,3.2279 3.63649,3.18704 3.63649,7.23213 v 22.71788 h 4.57627 q 1.26664,0 1.79782,0.49032 0.53117,0.44945 0.53117,1.22578 0,0.73547 -0.53117,1.22579 -0.53118,0.49031 -1.79782,0.49031 z m 0,-17.07927 q -2.41071,-0.69461 -5.10743,-1.02149 -2.69673,-0.32687 -5.67947,-0.32687 -7.47729,0 -11.68582,3.2279 -3.18704,2.41071 -3.18704,5.76119 0,3.10532 2.41071,5.23001 2.45157,2.1247 7.10955,2.1247 4.45369,0 8.25362,-1.75696 3.84079,-1.79782 7.88588,-5.67947 z M 14.528729,267.68021 v 21.12437 q 3.26876,-3.55478 6.251504,-4.98486 3.023604,-1.47094 6.741819,-1.47094 4.004231,0 6.782677,1.43008 2.819306,1.38922 4.698844,4.33111 1.879537,2.90102 1.879537,6.12892 v 21.2878 h 3.840793 q 1.266645,0 1.756959,0.49032 0.531174,0.44945 0.531174,1.22578 0,0.73547 -0.531174,1.22579 -0.490314,0.49031 -1.756959,0.49031 H 33.569258 q -1.266644,0 -1.797818,-0.49031 -0.531173,-0.49032 -0.531173,-1.22579 0,-0.77633 0.531173,-1.22578 0.531174,-0.49032 1.797818,-0.49032 h 3.840794 v -21.04264 q 0,-3.71822 -2.696727,-6.21065 -2.655868,-2.49243 -7.43643,-2.49243 -3.759075,0 -6.414943,1.83868 -1.920397,1.30751 -6.333223,6.16979 v 21.73725 h 3.881653 q 1.225785,0 1.756959,0.49032 0.531173,0.44945 0.531173,1.22578 0,0.73547 -0.531173,1.22579 -0.531174,0.49031 -1.756959,0.49031 H 7.2148773 q -1.2257851,0 -1.7569587,-0.49031 -0.5311736,-0.49032 -0.5311736,-1.22579 0,-0.77633 0.5311736,-1.22578 0.5311736,-0.49032 1.7569587,-0.49032 H 11.09653 V 271.15327 H 6.4794062 q -1.2257851,0 -1.7569587,-0.49031 -0.5311736,-0.49032 -0.5311736,-1.26665 0,-0.73547 0.5311736,-1.22578 0.5311736,-0.49032 1.7569587,-0.49032 z m -27.53931,18.14162 q 0,-1.18492 0.490314,-1.7161 0.490314,-0.53117 1.225785,-0.53117 0.776331,0 1.266645,0.53117 0.4903138,0.53118 0.4903138,1.79782 v 5.88377 q 0,1.22579 -0.4903138,1.75696 -0.490314,0.53117 -1.266645,0.53117 -0.694612,0 -1.184926,-0.44945 -0.449454,-0.44946 -0.531173,-1.47094 -0.245157,-2.45157 -2.53329,-4.04509 -3.350479,-2.28814 -8.866512,-2.28814 -5.761191,0 -8.948232,2.329 -2.410711,1.75695 -2.410711,3.92251 0,2.45157 2.860166,4.08595 1.961256,1.14406 7.43643,1.75696 7.150413,0.77633 9.928859,1.75696 3.963372,1.43008 5.8837693,3.96337 1.9612562,2.53329 1.9612562,5.47517 0,4.37197 -4.2085295,7.80417 -4.208529,3.39134 -12.33957,3.39134 -8.131042,0 -13.320199,-4.12681 0,1.38922 -0.163438,1.79781 -0.163438,0.4086 -0.612893,0.69462 -0.408595,0.28601 -0.939768,0.28601 -0.735471,0 -1.225785,-0.53117 -0.490314,-0.53117 -0.490314,-1.75696 v -7.06869 q 0,-1.22579 0.449454,-1.75696 0.490314,-0.53118 1.266645,-0.53118 0.735471,0 1.225785,0.53118 0.531173,0.49031 0.531173,1.34836 0,1.87954 0.939769,3.14618 1.430083,1.96126 4.535405,3.26876 3.146182,1.26665 7.681587,1.26665 6.700959,0 9.96972,-2.49243 3.26876,-2.49243 3.26876,-5.27088 0,-3.18704 -3.30962,-5.10744 -3.350479,-1.92039 -9.765422,-2.57415 -6.374083,-0.65375 -9.152529,-1.71609 -2.778446,-1.06235 -4.331108,-3.18705 -1.552661,-2.12469 -1.552661,-4.57626 0,-4.41283 4.331108,-6.98698 4.331107,-2.615 10.337455,-2.615 7.109554,0 11.56324,3.47305 z m -51.646403,33.13706 v -4.944 q -7.47729,6.29237 -15.976067,6.29237 -6.169785,0 -9.642843,-3.10533 -3.473058,-3.14618 -3.473058,-7.68158 0,-4.98486 4.576264,-8.70308 4.576265,-3.71821 13.361059,-3.71821 2.369851,0 5.148297,0.32687 2.778447,0.28602 6.006348,0.93977 v -5.55689 q 0,-2.81931 -2.615009,-4.90314 -2.615008,-2.08384 -7.845025,-2.08384 -4.004231,0 -11.236364,2.329 -1.307504,0.40859 -1.675239,0.40859 -0.653752,0 -1.144067,-0.49031 -0.449454,-0.49032 -0.449454,-1.22579 0,-0.69461 0.408595,-1.10321 0.572033,-0.61289 4.617124,-1.67523 6.374083,-1.7161 9.642843,-1.7161 6.496662,0 10.133158,3.2279 3.636496,3.18704 3.636496,7.23213 v 22.71788 h 4.576264 q 1.266645,0 1.797819,0.49032 0.531173,0.44945 0.531173,1.22578 0,0.73547 -0.531173,1.22579 -0.531174,0.49031 -1.797819,0.49031 z m 0,-17.07927 q -2.410711,-0.69461 -5.107438,-1.02149 -2.696728,-0.32687 -5.679472,-0.32687 -7.477289,0 -11.685818,3.2279 -3.187042,2.41071 -3.187042,5.76119 0,3.10532 2.410711,5.23001 2.45157,2.1247 7.109554,2.1247 4.453686,0 8.25362,-1.75696 3.840794,-1.79782 7.885885,-5.67947 z M -122.9635,267.68021 v 47.84648 h 13.48363 q 1.26665,0 1.79782,0.49032 0.53118,0.44945 0.53118,1.22578 0,0.73547 -0.53118,1.22579 -0.53117,0.49031 -1.79782,0.49031 h -30.39947 q -1.22578,0 -1.75696,-0.49031 -0.53117,-0.49032 -0.53117,-1.22579 0,-0.77633 0.53117,-1.22578 0.53118,-0.49032 1.75696,-0.49032 h 13.48364 v -44.37342 h -9.888 q -1.22579,0 -1.79782,-0.49031 -0.53117,-0.49032 -0.53117,-1.26665 0,-0.73547 0.53117,-1.22578 0.53117,-0.49032 1.79782,-0.49032 z"
         style="font-style:normal;font-variant:normal;font-weight:normal;font-stretch:normal;font-family:'courier new';-inkscape-font-specification:'courier new';stroke-width:2.09200668"
         id="path893" />
    </g>
  </g>
  <g
     transform="translate(209.16057,-239.55624)"
     id="layer2">
    <flowRoot
       transform="scale(0.26458333)"
       style="font-style:normal;font-weight:normal;font-size:40px;line-height:1.25;font-family:sans-serif;letter-spacing:0px;word-spacing:0px;fill:#000000;fill-opacity:1;stroke:none"
       id="flowRoot3726"
       xml:space="preserve"><flowRegion
         id="flowRegion3728"><rect
           y="260.01968"
           x="285.71429"
           height="67.5"
           width="49.285713"
           id="rect3730" /></flowRegion><flowPara
         id="flowPara3732" /></flowRoot>    <g
       id="text3736"
       style="font-style:normal;font-weight:normal;font-size:10.58333302px;line-height:1.25;font-family:sans-serif;letter-spacing:0px;word-spacing:0px;fill:#ffffff;fill-opacity:1;stroke:none;stroke-width:0.26458332"
       aria-label="\" />
    <g
       id="text3745"
       style="font-style:normal;font-weight:normal;font-size:10.58333302px;line-height:1.25;font-family:sans-serif;letter-spacing:0px;word-spacing:0px;fill:#ffffff;fill-opacity:1;stroke:none;stroke-width:0.26458332"
       aria-label="-" />
    <g
       transform="matrix(7.9067971,0,0,7.9067971,-886.48006,-289.97366)"
       id="text3745-4-9"
       style="font-style:normal;font-weight:normal;font-size:10.58333302px;line-height:1.25;font-family:sans-serif;letter-spacing:0px;word-spacing:0px;fill:#000000;fill-opacity:1;stroke:none;stroke-width:0.26458332;filter:url(#filter5384)"
       aria-label="-">
      <path
         d="m 92.219159,76.335014 v 0.620118 h -4.42867 v -0.620118 z m 0.837654,-7.426551 v 0.620117 h -4.42867 v -0.620117 z m -4.186401,0.19163 3.488159,7.482747 q 0.05168,0.113688 0.05168,0.165365 0,0.08268 -0.06718,0.144694 -0.06201,0.06718 -0.149861,0.06718 -0.144694,0 -0.232544,-0.191203 L 88.472504,69.28096 q -0.05168,-0.10852 -0.05168,-0.165364 0,-0.08268 0.06201,-0.144694 0.06718,-0.06201 0.155029,-0.06201 0.139527,0 0.232544,0.191203 z"
         style="font-style:normal;font-variant:normal;font-weight:normal;font-stretch:normal;font-family:'courier new';-inkscape-font-specification:'courier new';fill:#000000;fill-opacity:1;stroke-width:0.26458332"
         id="path4613-2" />
    </g>
    <g
       transform="matrix(7.9067971,0,0,7.9067971,-886.48006,-289.97366)"
       id="text3745-4-1"
       style="font-style:normal;font-weight:normal;font-size:10.58333302px;line-height:1.25;font-family:sans-serif;letter-spacing:0px;word-spacing:0px;fill:#000000;fill-opacity:1;stroke:none;stroke-width:0.26458332;filter:url(#filter5422)"
       aria-label="-">
      <path
         d="m 92.219159,76.335014 v 0.620118 h -4.42867 v -0.620118 z m 0.837654,-7.426551 v 0.620117 h -4.42867 v -0.620117 z m -4.186401,0.19163 3.488159,7.482747 q 0.05168,0.113688 0.05168,0.165365 0,0.08268 -0.06718,0.144694 -0.06201,0.06718 -0.149861,0.06718 -0.144694,0 -0.232544,-0.191203 L 88.472504,69.28096 q -0.05168,-0.10852 -0.05168,-0.165364 0,-0.08268 0.06201,-0.144694 0.06718,-0.06201 0.155029,-0.06201 0.139527,0 0.232544,0.191203 z"
         style="font-style:normal;font-variant:normal;font-weight:normal;font-stretch:normal;font-family:'courier new';-inkscape-font-specification:'courier new';fill:#000000;fill-opacity:1;stroke-width:0.26458332"
         id="path4613-23" />
    </g>
    <g
       transform="matrix(7.9067971,0,0,7.9067971,-886.48006,-289.97366)"
       id="text3745-4-4"
       style="font-style:normal;font-weight:normal;font-size:10.58333302px;line-height:1.25;font-family:sans-serif;letter-spacing:0px;word-spacing:0px;fill:#000000;fill-opacity:1;stroke:none;stroke-width:0.26458332;filter:url(#filter5452)"
       aria-label="-">
      <path
         d="m 92.219159,76.335014 v 0.620118 h -4.42867 v -0.620118 z m 0.837654,-7.426551 v 0.620117 h -4.42867 v -0.620117 z m -4.186401,0.19163 3.488159,7.482747 q 0.05168,0.113688 0.05168,0.165365 0,0.08268 -0.06718,0.144694 -0.06201,0.06718 -0.149861,0.06718 -0.144694,0 -0.232544,-0.191203 L 88.472504,69.28096 q -0.05168,-0.10852 -0.05168,-0.165364 0,-0.08268 0.06201,-0.144694 0.06718,-0.06201 0.155029,-0.06201 0.139527,0 0.232544,0.191203 z"
         style="font-style:normal;font-variant:normal;font-weight:normal;font-stretch:normal;font-family:'courier new';-inkscape-font-specification:'courier new';fill:#000000;fill-opacity:1;stroke-width:0.26458332"
         id="path4613-6" />
    </g>
    <g
       transform="matrix(7.9067971,0,0,7.9067971,-886.48006,-289.97366)"
       id="text3745-4"
       style="font-style:normal;font-weight:normal;font-size:10.58333302px;line-height:1.25;font-family:sans-serif;letter-spacing:0px;word-spacing:0px;fill:#ffffff;fill-opacity:1;stroke:none;stroke-width:0.26458332"
       aria-label="-">
      <path
         d="m 92.219159,76.335014 v 0.620118 h -4.42867 v -0.620118 z m 0.837654,-7.426551 v 0.620117 h -4.42867 v -0.620117 z m -4.186401,0.19163 3.488159,7.482747 q 0.05168,0.113688 0.05168,0.165365 0,0.08268 -0.06718,0.144694 -0.06201,0.06718 -0.149861,0.06718 -0.144694,0 -0.232544,-0.191203 L 88.472504,69.28096 q -0.05168,-0.10852 -0.05168,-0.165364 0,-0.08268 0.06201,-0.144694 0.06718,-0.06201 0.155029,-0.06201 0.139527,0 0.232544,0.191203 z"
         style="font-style:normal;font-variant:normal;font-weight:normal;font-stretch:normal;font-family:'courier new';-inkscape-font-specification:'courier new';fill:#ffffff;fill-opacity:1;stroke-width:0.26458332"
         id="path4613" />
    </g>
  </g>
  <g
     style="display:inline"
     transform="translate(209.16057,-239.55624)"
     id="layer3">
    <text
       id="text3741"
       y="68.702377"
       x="67.846725"
       style="font-style:normal;font-weight:normal;font-size:10.58333302px;line-height:1.25;font-family:sans-serif;letter-spacing:0px;word-spacing:0px;fill:#000000;fill-opacity:1;stroke:none;stroke-width:0.26458332"
       xml:space="preserve"><tspan
         style="stroke-width:0.26458332"
         y="78.066147"
         x="67.846725"
         id="tspan3739" /></text>
    <g
       id="text3767"
       style="font-style:normal;font-weight:normal;font-size:10.58333302px;line-height:1.25;font-family:sans-serif;letter-spacing:0px;word-spacing:0px;fill:#ffffff;fill-opacity:1;stroke:none;stroke-width:0.26458332"
       aria-label="\" />
    <g
       id="text3771"
       style="font-style:normal;font-weight:normal;font-size:10.58333302px;line-height:1.25;font-family:sans-serif;letter-spacing:0px;word-spacing:0px;fill:#ffffff;fill-opacity:1;stroke:none;stroke-width:0.26458332"
       aria-label="&gt;" />
    <g
       transform="matrix(7.9067971,0,0,7.9067971,-886.48006,-289.97366)"
       id="text3771-3-1"
       style="font-style:normal;font-weight:normal;font-size:10.58333302px;line-height:1.25;font-family:sans-serif;letter-spacing:0px;word-spacing:0px;fill:#000000;fill-opacity:1;stroke:none;stroke-width:0.26458332;filter:url(#filter5610)"
       aria-label="&gt;">
      <path
         d="m 125.26476,75.514959 -4.69222,2.614827 q -0.11369,0.06201 -0.17054,0.06201 -0.0879,0 -0.15503,-0.06201 -0.062,-0.06718 -0.062,-0.155029 0,-0.129191 0.1757,-0.227376 l 4.02043,-2.232422 -4.01526,-2.232422 q -0.1757,-0.09819 -0.1757,-0.227376 0,-0.08785 0.062,-0.149862 0.0672,-0.06718 0.15503,-0.06718 0.0568,0 0.17053,0.06201 z m -1.79449,-3.912094 -4.69222,2.614827 q -0.11369,0.06201 -0.17053,0.06201 -0.0878,0 -0.15503,-0.06201 -0.062,-0.06718 -0.062,-0.155029 0,-0.129191 0.1757,-0.227377 l 4.02043,-2.232421 -4.01526,-2.232422 q -0.1757,-0.09819 -0.1757,-0.227376 0,-0.08785 0.062,-0.149862 0.0672,-0.06718 0.15503,-0.06718 0.0568,0 0.17054,0.06201 z m -4.6215,-2.479541 3.48816,7.482747 q 0.0517,0.113689 0.0517,0.165365 0,0.08268 -0.0672,0.144694 -0.062,0.06718 -0.14986,0.06718 -0.14469,0 -0.23254,-0.191202 l -3.48816,-7.487915 q -0.0517,-0.108521 -0.0517,-0.165365 0,-0.08268 0.062,-0.144694 0.0672,-0.06201 0.15503,-0.06201 0.13953,0 0.23255,0.191203 z"
         style="font-style:normal;font-variant:normal;font-weight:normal;font-stretch:normal;font-family:'courier new';-inkscape-font-specification:'courier new';fill:#000000;stroke-width:0.26458332"
         id="path4617-8" />
    </g>
    <g
       transform="matrix(7.9067971,0,0,7.9067971,-886.48006,-289.97366)"
       id="text3771-3-3"
       style="font-style:normal;font-weight:normal;font-size:10.58333302px;line-height:1.25;font-family:sans-serif;letter-spacing:0px;word-spacing:0px;fill:#000000;fill-opacity:1;stroke:none;stroke-width:0.26458332;filter:url(#filter5652)"
       aria-label="&gt;">
      <path
         d="m 125.26476,75.514959 -4.69222,2.614827 q -0.11369,0.06201 -0.17054,0.06201 -0.0879,0 -0.15503,-0.06201 -0.062,-0.06718 -0.062,-0.155029 0,-0.129191 0.1757,-0.227376 l 4.02043,-2.232422 -4.01526,-2.232422 q -0.1757,-0.09819 -0.1757,-0.227376 0,-0.08785 0.062,-0.149862 0.0672,-0.06718 0.15503,-0.06718 0.0568,0 0.17053,0.06201 z m -1.79449,-3.912094 -4.69222,2.614827 q -0.11369,0.06201 -0.17053,0.06201 -0.0878,0 -0.15503,-0.06201 -0.062,-0.06718 -0.062,-0.155029 0,-0.129191 0.1757,-0.227377 l 4.02043,-2.232421 -4.01526,-2.232422 q -0.1757,-0.09819 -0.1757,-0.227376 0,-0.08785 0.062,-0.149862 0.0672,-0.06718 0.15503,-0.06718 0.0568,0 0.17054,0.06201 z m -4.6215,-2.479541 3.48816,7.482747 q 0.0517,0.113689 0.0517,0.165365 0,0.08268 -0.0672,0.144694 -0.062,0.06718 -0.14986,0.06718 -0.14469,0 -0.23254,-0.191202 l -3.48816,-7.487915 q -0.0517,-0.108521 -0.0517,-0.165365 0,-0.08268 0.062,-0.144694 0.0672,-0.06201 0.15503,-0.06201 0.13953,0 0.23255,0.191203 z"
         style="font-style:normal;font-variant:normal;font-weight:normal;font-stretch:normal;font-family:'courier new';-inkscape-font-specification:'courier new';fill:#000000;stroke-width:0.26458332"
         id="path4617-9" />
    </g>
    <g
       transform="matrix(7.9067971,0,0,7.9067971,-886.48006,-289.97366)"
       id="text3771-3-7"
       style="font-style:normal;font-weight:normal;font-size:10.58333302px;line-height:1.25;font-family:sans-serif;letter-spacing:0px;word-spacing:0px;fill:#000000;fill-opacity:1;stroke:none;stroke-width:0.26458332;filter:url(#filter5686)"
       aria-label="&gt;">
      <path
         d="m 125.26476,75.514959 -4.69222,2.614827 q -0.11369,0.06201 -0.17054,0.06201 -0.0879,0 -0.15503,-0.06201 -0.062,-0.06718 -0.062,-0.155029 0,-0.129191 0.1757,-0.227376 l 4.02043,-2.232422 -4.01526,-2.232422 q -0.1757,-0.09819 -0.1757,-0.227376 0,-0.08785 0.062,-0.149862 0.0672,-0.06718 0.15503,-0.06718 0.0568,0 0.17053,0.06201 z m -1.79449,-3.912094 -4.69222,2.614827 q -0.11369,0.06201 -0.17053,0.06201 -0.0878,0 -0.15503,-0.06201 -0.062,-0.06718 -0.062,-0.155029 0,-0.129191 0.1757,-0.227377 l 4.02043,-2.232421 -4.01526,-2.232422 q -0.1757,-0.09819 -0.1757,-0.227376 0,-0.08785 0.062,-0.149862 0.0672,-0.06718 0.15503,-0.06718 0.0568,0 0.17054,0.06201 z m -4.6215,-2.479541 3.48816,7.482747 q 0.0517,0.113689 0.0517,0.165365 0,0.08268 -0.0672,0.144694 -0.062,0.06718 -0.14986,0.06718 -0.14469,0 -0.23254,-0.191202 l -3.48816,-7.487915 q -0.0517,-0.108521 -0.0517,-0.165365 0,-0.08268 0.062,-0.144694 0.0672,-0.06201 0.15503,-0.06201 0.13953,0 0.23255,0.191203 z"
         style="font-style:normal;font-variant:normal;font-weight:normal;font-stretch:normal;font-family:'courier new';-inkscape-font-specification:'courier new';fill:#000000;stroke-width:0.26458332"
         id="path4617-3" />
    </g>
    <g
       transform="matrix(7.9067971,0,0,7.9067971,-886.48006,-289.97366)"
       id="text3771-3"
       style="font-style:normal;font-weight:normal;font-size:10.58333302px;line-height:1.25;font-family:sans-serif;letter-spacing:0px;word-spacing:0px;fill:#ffffff;fill-opacity:1;stroke:none;stroke-width:0.26458332"
       aria-label="&gt;">
      <path
         d="m 125.26476,75.514959 -4.69222,2.614827 q -0.11369,0.06201 -0.17054,0.06201 -0.0879,0 -0.15503,-0.06201 -0.062,-0.06718 -0.062,-0.155029 0,-0.129191 0.1757,-0.227376 l 4.02043,-2.232422 -4.01526,-2.232422 q -0.1757,-0.09819 -0.1757,-0.227376 0,-0.08785 0.062,-0.149862 0.0672,-0.06718 0.15503,-0.06718 0.0568,0 0.17053,0.06201 z m -1.79449,-3.912094 -4.69222,2.614827 q -0.11369,0.06201 -0.17053,0.06201 -0.0878,0 -0.15503,-0.06201 -0.062,-0.06718 -0.062,-0.155029 0,-0.129191 0.1757,-0.227377 l 4.02043,-2.232421 -4.01526,-2.232422 q -0.1757,-0.09819 -0.1757,-0.227376 0,-0.08785 0.062,-0.149862 0.0672,-0.06718 0.15503,-0.06718 0.0568,0 0.17054,0.06201 z m -4.6215,-2.479541 3.48816,7.482747 q 0.0517,0.113689 0.0517,0.165365 0,0.08268 -0.0672,0.144694 -0.062,0.06718 -0.14986,0.06718 -0.14469,0 -0.23254,-0.191202 l -3.48816,-7.487915 q -0.0517,-0.108521 -0.0517,-0.165365 0,-0.08268 0.062,-0.144694 0.0672,-0.06201 0.15503,-0.06201 0.13953,0 0.23255,0.191203 z"
         style="font-style:normal;font-variant:normal;font-weight:normal;font-stretch:normal;font-family:'courier new';-inkscape-font-specification:'courier new';fill:#ffffff;stroke-width:0.26458332"
         id="path4617" />
    </g>
  </g>
  <g
     transform="translate(209.16057,-239.55624)"
     id="layer4">
    <g
       id="text4601"
       style="font-style:normal;font-weight:normal;font-size:10.58333302px;line-height:1.25;font-family:sans-serif;letter-spacing:0px;word-spacing:0px;fill:#ffffff;fill-opacity:1;stroke:none;stroke-width:0.26458332"
       aria-label="\" />
    <g
       transform="matrix(7.9067971,0,0,7.9067971,-886.48006,-289.97366)"
       id="text4605-2"
       style="font-style:normal;font-weight:normal;font-size:10.58333302px;line-height:1.25;font-family:sans-serif;letter-spacing:0px;word-spacing:0px;fill:#000000;fill-opacity:1;stroke:none;stroke-width:0.26458332;filter:url(#filter5788)"
       aria-label="&lt;">
      <path
         d="m 138.93401,74.581693 4.69222,-2.614827 q 0.11369,-0.06201 0.17053,-0.06201 0.0879,0 0.14986,0.06718 0.0672,0.06201 0.0672,0.149862 0,0.129191 -0.1757,0.227376 l -4.02042,2.232422 4.01526,2.232422 q 0.1757,0.09819 0.1757,0.227376 0,0.08785 -0.0672,0.155029 -0.062,0.06201 -0.14986,0.06201 -0.0568,0 -0.17054,-0.06201 z m -2.12329,-5.185488 3.48816,7.482747 q 0.0517,0.113688 0.0517,0.165365 0,0.08268 -0.0672,0.144694 -0.062,0.06718 -0.14987,0.06718 -0.14469,0 -0.23254,-0.191203 l -3.48816,-7.487915 q -0.0517,-0.10852 -0.0517,-0.165364 0,-0.08268 0.062,-0.144694 0.0672,-0.06201 0.15503,-0.06201 0.13952,0 0.23254,0.191203 z"
         style="font-style:normal;font-variant:normal;font-weight:normal;font-stretch:normal;font-family:'Courier New';-inkscape-font-specification:'Courier New';fill:#000000;stroke-width:0.26458332"
         id="path4630-1" />
    </g>
    <g
       transform="matrix(7.9067971,0,0,7.9067971,-886.48006,-289.97366)"
       id="text4605-1"
       style="font-style:normal;font-weight:normal;font-size:10.58333302px;line-height:1.25;font-family:sans-serif;letter-spacing:0px;word-spacing:0px;fill:#000000;fill-opacity:1;stroke:none;stroke-width:0.26458332;filter:url(#filter5822)"
       aria-label="&lt;">
      <path
         d="m 138.93401,74.581693 4.69222,-2.614827 q 0.11369,-0.06201 0.17053,-0.06201 0.0879,0 0.14986,0.06718 0.0672,0.06201 0.0672,0.149862 0,0.129191 -0.1757,0.227376 l -4.02042,2.232422 4.01526,2.232422 q 0.1757,0.09819 0.1757,0.227376 0,0.08785 -0.0672,0.155029 -0.062,0.06201 -0.14986,0.06201 -0.0568,0 -0.17054,-0.06201 z m -2.12329,-5.185488 3.48816,7.482747 q 0.0517,0.113688 0.0517,0.165365 0,0.08268 -0.0672,0.144694 -0.062,0.06718 -0.14987,0.06718 -0.14469,0 -0.23254,-0.191203 l -3.48816,-7.487915 q -0.0517,-0.10852 -0.0517,-0.165364 0,-0.08268 0.062,-0.144694 0.0672,-0.06201 0.15503,-0.06201 0.13952,0 0.23254,0.191203 z"
         style="font-style:normal;font-variant:normal;font-weight:normal;font-stretch:normal;font-family:'Courier New';-inkscape-font-specification:'Courier New';fill:#000000;stroke-width:0.26458332"
         id="path4630-8" />
    </g>
    <g
       transform="matrix(7.9067971,0,0,7.9067971,-886.48006,-289.97366)"
       id="text4605-5"
       style="font-style:normal;font-weight:normal;font-size:10.58333302px;line-height:1.25;font-family:sans-serif;letter-spacing:0px;word-spacing:0px;fill:#000000;fill-opacity:1;stroke:none;stroke-width:0.26458332;filter:url(#filter5860)"
       aria-label="&lt;">
      <path
         d="m 138.93401,74.581693 4.69222,-2.614827 q 0.11369,-0.06201 0.17053,-0.06201 0.0879,0 0.14986,0.06718 0.0672,0.06201 0.0672,0.149862 0,0.129191 -0.1757,0.227376 l -4.02042,2.232422 4.01526,2.232422 q 0.1757,0.09819 0.1757,0.227376 0,0.08785 -0.0672,0.155029 -0.062,0.06201 -0.14986,0.06201 -0.0568,0 -0.17054,-0.06201 z m -2.12329,-5.185488 3.48816,7.482747 q 0.0517,0.113688 0.0517,0.165365 0,0.08268 -0.0672,0.144694 -0.062,0.06718 -0.14987,0.06718 -0.14469,0 -0.23254,-0.191203 l -3.48816,-7.487915 q -0.0517,-0.10852 -0.0517,-0.165364 0,-0.08268 0.062,-0.144694 0.0672,-0.06201 0.15503,-0.06201 0.13952,0 0.23254,0.191203 z"
         style="font-style:normal;font-variant:normal;font-weight:normal;font-stretch:normal;font-family:'Courier New';-inkscape-font-specification:'Courier New';fill:#000000;stroke-width:0.26458332"
         id="path4630-4" />
    </g>
    <g
       transform="matrix(7.9067971,0,0,7.9067971,-886.48006,-289.97366)"
       id="text4605"
       style="font-style:normal;font-weight:normal;font-size:10.58333302px;line-height:1.25;font-family:sans-serif;letter-spacing:0px;word-spacing:0px;fill:#ffffff;fill-opacity:1;stroke:none;stroke-width:0.26458332"
       aria-label="&lt;">
      <path
         d="m 138.93401,74.581693 4.69222,-2.614827 q 0.11369,-0.06201 0.17053,-0.06201 0.0879,0 0.14986,0.06718 0.0672,0.06201 0.0672,0.149862 0,0.129191 -0.1757,0.227376 l -4.02042,2.232422 4.01526,2.232422 q 0.1757,0.09819 0.1757,0.227376 0,0.08785 -0.0672,0.155029 -0.062,0.06201 -0.14986,0.06201 -0.0568,0 -0.17054,-0.06201 z m -2.12329,-5.185488 3.48816,7.482747 q 0.0517,0.113688 0.0517,0.165365 0,0.08268 -0.0672,0.144694 -0.062,0.06718 -0.14987,0.06718 -0.14469,0 -0.23254,-0.191203 l -3.48816,-7.487915 q -0.0517,-0.10852 -0.0517,-0.165364 0,-0.08268 0.062,-0.144694 0.0672,-0.06201 0.15503,-0.06201 0.13952,0 0.23254,0.191203 z"
         style="font-style:normal;font-variant:normal;font-weight:normal;font-stretch:normal;font-family:'Courier New';-inkscape-font-specification:'Courier New';fill:#ffffff;stroke-width:0.26458332"
         id="path4630" />
    </g>
  </g>
</svg>
