<?xml version="1.0" encoding="UTF-8" standalone="no"?>
<svg
   xmlns:dc="http://purl.org/dc/elements/1.1/"
   xmlns:cc="http://creativecommons.org/ns#"
   xmlns:rdf="http://www.w3.org/1999/02/22-rdf-syntax-ns#"
   xmlns:svg="http://www.w3.org/2000/svg"
   xmlns="http://www.w3.org/2000/svg"
   id="svg8"
   version="1.1"
   viewBox="0 0 576.26197 178.78345"
   height="675.71698"
   width="2177.998">
  <defs
     id="defs2">
    <filter
       height="1.2937629"
       y="-0.14688145"
       width="1.4491304"
       x="-0.22456519"
       id="filter5384"
       style="color-interpolation-filters:sRGB">
      <feGaussianBlur
         id="feGaussianBlur5386"
         stdDeviation="0.49276378" />
    </filter>
    <filter
       height="1.0377128"
       y="-0.018856402"
       width="1.0576586"
       x="-0.028829316"
       id="filter5422"
       style="color-interpolation-filters:sRGB">
      <feGaussianBlur
         id="feGaussianBlur5424"
         stdDeviation="0.063260215" />
    </filter>
    <filter
       height="1.0774105"
       y="-0.038705248"
       width="1.1183519"
       x="-0.059175964"
       id="filter5452"
       style="color-interpolation-filters:sRGB">
      <feGaussianBlur
         id="feGaussianBlur5454"
         stdDeviation="0.12984992" />
    </filter>
    <filter
       height="1.3135419"
       y="-0.15677094"
       width="1.4226205"
       x="-0.21131025"
       id="filter5610"
       style="color-interpolation-filters:sRGB">
      <feGaussianBlur
         id="feGaussianBlur5612"
         stdDeviation="0.60525154" />
    </filter>
    <filter
       height="1.060618"
       y="-0.030309049"
       width="1.0817066"
       x="-0.040853314"
       id="filter5652"
       style="color-interpolation-filters:sRGB">
      <feGaussianBlur
         id="feGaussianBlur5654"
         stdDeviation="0.1170153" />
    </filter>
    <filter
       height="1.0627084"
       y="-0.031354189"
       width="1.0845242"
       x="-0.042262048"
       id="filter5686"
       style="color-interpolation-filters:sRGB">
      <feGaussianBlur
         id="feGaussianBlur5688"
         stdDeviation="0.12105031" />
    </filter>
    <filter
       height="1.3510416"
       y="-0.17552076"
       width="1.3694277"
       x="-0.18471384"
       id="filter5788"
       style="color-interpolation-filters:sRGB">
      <feGaussianBlur
         id="feGaussianBlur5790"
         stdDeviation="0.58898393" />
    </filter>
    <filter
       height="1.0702083"
       y="-0.035104156"
       width="1.0738854"
       x="-0.036942769"
       id="filter5822"
       style="color-interpolation-filters:sRGB">
      <feGaussianBlur
         id="feGaussianBlur5824"
         stdDeviation="0.11779679" />
    </filter>
    <filter
       height="1.0702083"
       y="-0.035104156"
       width="1.0738854"
       x="-0.036942769"
       id="filter5860"
       style="color-interpolation-filters:sRGB">
      <feGaussianBlur
         id="feGaussianBlur5862"
         stdDeviation="0.11779679" />
    </filter>
    <filter
       height="1.3041832"
       y="-0.15209162"
       width="1.0408325"
       x="-0.020416258"
       id="filter6304"
       style="color-interpolation-filters:sRGB">
      <feGaussianBlur
         id="feGaussianBlur6306"
         stdDeviation="0.42179596" />
    </filter>
  </defs>
  <metadata
     id="metadata5">
    <rdf:RDF>
      <cc:Work
         rdf:about="">
        <dc:format>image/svg+xml</dc:format>
        <dc:type
           rdf:resource="http://purl.org/dc/dcmitype/StillImage" />
        <dc:title></dc:title>
      </cc:Work>
    </rdf:RDF>
  </metadata>
  <g
     transform="translate(258.37307,-202.24999)"
     id="layer1">
    <flowRoot
       transform="scale(0.26458333)"
       style="font-style:normal;font-weight:normal;font-size:40px;line-height:1.25;font-family:sans-serif;letter-spacing:0px;word-spacing:0px;fill:#000000;fill-opacity:1;stroke:none"
       id="flowRoot3713"
       xml:space="preserve"><flowRegion
         id="flowRegion3715"><rect
           y="263.89001"
           x="213.14218"
           height="156.57364"
           width="352.54324"
           id="rect3717" /></flowRegion><flowPara
         id="flowPara3719" /></flowRoot>    <text
       transform="matrix(7.9067971,0,0,7.9067971,-205.53187,-2014.3102)"
       id="text3723-1"
       y="295.10193"
       x="1.2226309"
       style="font-style:normal;font-weight:normal;font-size:10.58333302px;line-height:1.25;font-family:sans-serif;letter-spacing:0px;word-spacing:0px;fill:#000000;fill-opacity:1;stroke:none;stroke-width:0.26458332;filter:url(#filter6304)"
       xml:space="preserve"><tspan
         style="font-style:normal;font-variant:normal;font-weight:normal;font-stretch:normal;line-height:0;font-family:consolas;-inkscape-font-specification:consolas;stroke-width:0.26458332"
         y="295.10193"
         x="1.2226309"
         id="tspan3721-7"> <tspan
   id="tspan4596-3"
   style="font-style:normal;font-variant:normal;font-weight:normal;font-stretch:normal;font-family:'courier new';-inkscape-font-specification:'courier new';stroke-width:0.26458332">lash ac</tspan></tspan></text>
    <text
       id="text3723"
       y="318.95889"
       x="-195.89772"
       style="font-style:normal;font-weight:normal;font-size:83.68026733px;line-height:1.25;font-family:sans-serif;letter-spacing:0px;word-spacing:0px;fill:#000000;fill-opacity:1;stroke:none;stroke-width:2.09200668"
       xml:space="preserve"><tspan
         style="font-style:normal;font-variant:normal;font-weight:normal;font-stretch:normal;line-height:0;font-family:consolas;-inkscape-font-specification:consolas;stroke-width:2.09200668"
         y="318.95889"
         x="-195.89772"
         id="tspan3721"> <tspan
   id="tspan4596"
   style="font-style:normal;font-variant:normal;font-weight:normal;font-stretch:normal;font-family:'courier new';-inkscape-font-specification:'courier new';stroke-width:2.09200668">lash ac</tspan></tspan></text>
  </g>
  <g
     transform="translate(258.37307,-202.24999)"
     id="layer2">
    <flowRoot
       transform="scale(0.26458333)"
       style="font-style:normal;font-weight:normal;font-size:40px;line-height:1.25;font-family:sans-serif;letter-spacing:0px;word-spacing:0px;fill:#000000;fill-opacity:1;stroke:none"
       id="flowRoot3726"
       xml:space="preserve"><flowRegion
         id="flowRegion3728"><rect
           y="260.01968"
           x="285.71429"
           height="67.5"
           width="49.285713"
           id="rect3730" /></flowRegion><flowPara
         id="flowPara3732" /></flowRoot>    <g
       id="text3736"
       style="font-style:normal;font-weight:normal;font-size:10.58333302px;line-height:1.25;font-family:sans-serif;letter-spacing:0px;word-spacing:0px;fill:#ffffff;fill-opacity:1;stroke:none;stroke-width:0.26458332"
       aria-label="\" />
    <g
       id="text3745"
       style="font-style:normal;font-weight:normal;font-size:10.58333302px;line-height:1.25;font-family:sans-serif;letter-spacing:0px;word-spacing:0px;fill:#ffffff;fill-opacity:1;stroke:none;stroke-width:0.26458332"
       aria-label="-" />
    <g
       transform="matrix(7.9067971,0,0,7.9067971,-886.48006,-289.97366)"
       id="text3745-4-9"
       style="font-style:normal;font-weight:normal;font-size:10.58333302px;line-height:1.25;font-family:sans-serif;letter-spacing:0px;word-spacing:0px;fill:#000000;fill-opacity:1;stroke:none;stroke-width:0.26458332;filter:url(#filter5384)"
       aria-label="-">
      <path
         d="m 92.219159,76.335014 v 0.620118 h -4.42867 v -0.620118 z m 0.837654,-7.426551 v 0.620117 h -4.42867 v -0.620117 z m -4.186401,0.19163 3.488159,7.482747 q 0.05168,0.113688 0.05168,0.165365 0,0.08268 -0.06718,0.144694 -0.06201,0.06718 -0.149861,0.06718 -0.144694,0 -0.232544,-0.191203 L 88.472504,69.28096 q -0.05168,-0.10852 -0.05168,-0.165364 0,-0.08268 0.06201,-0.144694 0.06718,-0.06201 0.155029,-0.06201 0.139527,0 0.232544,0.191203 z"
         style="font-style:normal;font-variant:normal;font-weight:normal;font-stretch:normal;font-family:'courier new';-inkscape-font-specification:'courier new';fill:#000000;fill-opacity:1;stroke-width:0.26458332"
         id="path4613-2" />
    </g>
    <g
       transform="matrix(7.9067971,0,0,7.9067971,-886.48006,-289.97366)"
       id="text3745-4-1"
       style="font-style:normal;font-weight:normal;font-size:10.58333302px;line-height:1.25;font-family:sans-serif;letter-spacing:0px;word-spacing:0px;fill:#000000;fill-opacity:1;stroke:none;stroke-width:0.26458332;filter:url(#filter5422)"
       aria-label="-">
      <path
         d="m 92.219159,76.335014 v 0.620118 h -4.42867 v -0.620118 z m 0.837654,-7.426551 v 0.620117 h -4.42867 v -0.620117 z m -4.186401,0.19163 3.488159,7.482747 q 0.05168,0.113688 0.05168,0.165365 0,0.08268 -0.06718,0.144694 -0.06201,0.06718 -0.149861,0.06718 -0.144694,0 -0.232544,-0.191203 L 88.472504,69.28096 q -0.05168,-0.10852 -0.05168,-0.165364 0,-0.08268 0.06201,-0.144694 0.06718,-0.06201 0.155029,-0.06201 0.139527,0 0.232544,0.191203 z"
         style="font-style:normal;font-variant:normal;font-weight:normal;font-stretch:normal;font-family:'courier new';-inkscape-font-specification:'courier new';fill:#000000;fill-opacity:1;stroke-width:0.26458332"
         id="path4613-23" />
    </g>
    <g
       transform="matrix(7.9067971,0,0,7.9067971,-886.48006,-289.97366)"
       id="text3745-4-4"
       style="font-style:normal;font-weight:normal;font-size:10.58333302px;line-height:1.25;font-family:sans-serif;letter-spacing:0px;word-spacing:0px;fill:#000000;fill-opacity:1;stroke:none;stroke-width:0.26458332;filter:url(#filter5452)"
       aria-label="-">
      <path
         d="m 92.219159,76.335014 v 0.620118 h -4.42867 v -0.620118 z m 0.837654,-7.426551 v 0.620117 h -4.42867 v -0.620117 z m -4.186401,0.19163 3.488159,7.482747 q 0.05168,0.113688 0.05168,0.165365 0,0.08268 -0.06718,0.144694 -0.06201,0.06718 -0.149861,0.06718 -0.144694,0 -0.232544,-0.191203 L 88.472504,69.28096 q -0.05168,-0.10852 -0.05168,-0.165364 0,-0.08268 0.06201,-0.144694 0.06718,-0.06201 0.155029,-0.06201 0.139527,0 0.232544,0.191203 z"
         style="font-style:normal;font-variant:normal;font-weight:normal;font-stretch:normal;font-family:'courier new';-inkscape-font-specification:'courier new';fill:#000000;fill-opacity:1;stroke-width:0.26458332"
         id="path4613-6" />
    </g>
    <g
       transform="matrix(7.9067971,0,0,7.9067971,-886.48006,-289.97366)"
       id="text3745-4"
       style="font-style:normal;font-weight:normal;font-size:10.58333302px;line-height:1.25;font-family:sans-serif;letter-spacing:0px;word-spacing:0px;fill:#ffffff;fill-opacity:1;stroke:none;stroke-width:0.26458332"
       aria-label="-">
      <path
         d="m 92.219159,76.335014 v 0.620118 h -4.42867 v -0.620118 z m 0.837654,-7.426551 v 0.620117 h -4.42867 v -0.620117 z m -4.186401,0.19163 3.488159,7.482747 q 0.05168,0.113688 0.05168,0.165365 0,0.08268 -0.06718,0.144694 -0.06201,0.06718 -0.149861,0.06718 -0.144694,0 -0.232544,-0.191203 L 88.472504,69.28096 q -0.05168,-0.10852 -0.05168,-0.165364 0,-0.08268 0.06201,-0.144694 0.06718,-0.06201 0.155029,-0.06201 0.139527,0 0.232544,0.191203 z"
         style="font-style:normal;font-variant:normal;font-weight:normal;font-stretch:normal;font-family:'courier new';-inkscape-font-specification:'courier new';fill:#ffffff;fill-opacity:1;stroke-width:0.26458332"
         id="path4613" />
    </g>
  </g>
  <g
     transform="translate(258.37307,-202.24999)"
     id="layer3">
    <text
       id="text3741"
       y="68.702377"
       x="67.846725"
       style="font-style:normal;font-weight:normal;font-size:10.58333302px;line-height:1.25;font-family:sans-serif;letter-spacing:0px;word-spacing:0px;fill:#000000;fill-opacity:1;stroke:none;stroke-width:0.26458332"
       xml:space="preserve"><tspan
         style="stroke-width:0.26458332"
         y="78.066147"
         x="67.846725"
         id="tspan3739" /></text>
    <g
       id="text3767"
       style="font-style:normal;font-weight:normal;font-size:10.58333302px;line-height:1.25;font-family:sans-serif;letter-spacing:0px;word-spacing:0px;fill:#ffffff;fill-opacity:1;stroke:none;stroke-width:0.26458332"
       aria-label="\" />
    <g
       id="text3771"
       style="font-style:normal;font-weight:normal;font-size:10.58333302px;line-height:1.25;font-family:sans-serif;letter-spacing:0px;word-spacing:0px;fill:#ffffff;fill-opacity:1;stroke:none;stroke-width:0.26458332"
       aria-label="&gt;" />
    <g
       transform="matrix(7.9067971,0,0,7.9067971,-886.48006,-289.97366)"
       id="text3771-3-1"
       style="font-style:normal;font-weight:normal;font-size:10.58333302px;line-height:1.25;font-family:sans-serif;letter-spacing:0px;word-spacing:0px;fill:#000000;fill-opacity:1;stroke:none;stroke-width:0.26458332;filter:url(#filter5610)"
       aria-label="&gt;">
      <path
         d="m 125.26476,75.514959 -4.69222,2.614827 q -0.11369,0.06201 -0.17054,0.06201 -0.0879,0 -0.15503,-0.06201 -0.062,-0.06718 -0.062,-0.155029 0,-0.129191 0.1757,-0.227376 l 4.02043,-2.232422 -4.01526,-2.232422 q -0.1757,-0.09819 -0.1757,-0.227376 0,-0.08785 0.062,-0.149862 0.0672,-0.06718 0.15503,-0.06718 0.0568,0 0.17053,0.06201 z m -1.79449,-3.912094 -4.69222,2.614827 q -0.11369,0.06201 -0.17053,0.06201 -0.0878,0 -0.15503,-0.06201 -0.062,-0.06718 -0.062,-0.155029 0,-0.129191 0.1757,-0.227377 l 4.02043,-2.232421 -4.01526,-2.232422 q -0.1757,-0.09819 -0.1757,-0.227376 0,-0.08785 0.062,-0.149862 0.0672,-0.06718 0.15503,-0.06718 0.0568,0 0.17054,0.06201 z m -4.6215,-2.479541 3.48816,7.482747 q 0.0517,0.113689 0.0517,0.165365 0,0.08268 -0.0672,0.144694 -0.062,0.06718 -0.14986,0.06718 -0.14469,0 -0.23254,-0.191202 l -3.48816,-7.487915 q -0.0517,-0.108521 -0.0517,-0.165365 0,-0.08268 0.062,-0.144694 0.0672,-0.06201 0.15503,-0.06201 0.13953,0 0.23255,0.191203 z"
         style="font-style:normal;font-variant:normal;font-weight:normal;font-stretch:normal;font-family:'courier new';-inkscape-font-specification:'courier new';fill:#000000;stroke-width:0.26458332"
         id="path4617-8" />
    </g>
    <g
       transform="matrix(7.9067971,0,0,7.9067971,-886.48006,-289.97366)"
       id="text3771-3-3"
       style="font-style:normal;font-weight:normal;font-size:10.58333302px;line-height:1.25;font-family:sans-serif;letter-spacing:0px;word-spacing:0px;fill:#000000;fill-opacity:1;stroke:none;stroke-width:0.26458332;filter:url(#filter5652)"
       aria-label="&gt;">
      <path
         d="m 125.26476,75.514959 -4.69222,2.614827 q -0.11369,0.06201 -0.17054,0.06201 -0.0879,0 -0.15503,-0.06201 -0.062,-0.06718 -0.062,-0.155029 0,-0.129191 0.1757,-0.227376 l 4.02043,-2.232422 -4.01526,-2.232422 q -0.1757,-0.09819 -0.1757,-0.227376 0,-0.08785 0.062,-0.149862 0.0672,-0.06718 0.15503,-0.06718 0.0568,0 0.17053,0.06201 z m -1.79449,-3.912094 -4.69222,2.614827 q -0.11369,0.06201 -0.17053,0.06201 -0.0878,0 -0.15503,-0.06201 -0.062,-0.06718 -0.062,-0.155029 0,-0.129191 0.1757,-0.227377 l 4.02043,-2.232421 -4.01526,-2.232422 q -0.1757,-0.09819 -0.1757,-0.227376 0,-0.08785 0.062,-0.149862 0.0672,-0.06718 0.15503,-0.06718 0.0568,0 0.17054,0.06201 z m -4.6215,-2.479541 3.48816,7.482747 q 0.0517,0.113689 0.0517,0.165365 0,0.08268 -0.0672,0.144694 -0.062,0.06718 -0.14986,0.06718 -0.14469,0 -0.23254,-0.191202 l -3.48816,-7.487915 q -0.0517,-0.108521 -0.0517,-0.165365 0,-0.08268 0.062,-0.144694 0.0672,-0.06201 0.15503,-0.06201 0.13953,0 0.23255,0.191203 z"
         style="font-style:normal;font-variant:normal;font-weight:normal;font-stretch:normal;font-family:'courier new';-inkscape-font-specification:'courier new';fill:#000000;stroke-width:0.26458332"
         id="path4617-9" />
    </g>
    <g
       transform="matrix(7.9067971,0,0,7.9067971,-886.48006,-289.97366)"
       id="text3771-3-7"
       style="font-style:normal;font-weight:normal;font-size:10.58333302px;line-height:1.25;font-family:sans-serif;letter-spacing:0px;word-spacing:0px;fill:#000000;fill-opacity:1;stroke:none;stroke-width:0.26458332;filter:url(#filter5686)"
       aria-label="&gt;">
      <path
         d="m 125.26476,75.514959 -4.69222,2.614827 q -0.11369,0.06201 -0.17054,0.06201 -0.0879,0 -0.15503,-0.06201 -0.062,-0.06718 -0.062,-0.155029 0,-0.129191 0.1757,-0.227376 l 4.02043,-2.232422 -4.01526,-2.232422 q -0.1757,-0.09819 -0.1757,-0.227376 0,-0.08785 0.062,-0.149862 0.0672,-0.06718 0.15503,-0.06718 0.0568,0 0.17053,0.06201 z m -1.79449,-3.912094 -4.69222,2.614827 q -0.11369,0.06201 -0.17053,0.06201 -0.0878,0 -0.15503,-0.06201 -0.062,-0.06718 -0.062,-0.155029 0,-0.129191 0.1757,-0.227377 l 4.02043,-2.232421 -4.01526,-2.232422 q -0.1757,-0.09819 -0.1757,-0.227376 0,-0.08785 0.062,-0.149862 0.0672,-0.06718 0.15503,-0.06718 0.0568,0 0.17054,0.06201 z m -4.6215,-2.479541 3.48816,7.482747 q 0.0517,0.113689 0.0517,0.165365 0,0.08268 -0.0672,0.144694 -0.062,0.06718 -0.14986,0.06718 -0.14469,0 -0.23254,-0.191202 l -3.48816,-7.487915 q -0.0517,-0.108521 -0.0517,-0.165365 0,-0.08268 0.062,-0.144694 0.0672,-0.06201 0.15503,-0.06201 0.13953,0 0.23255,0.191203 z"
         style="font-style:normal;font-variant:normal;font-weight:normal;font-stretch:normal;font-family:'courier new';-inkscape-font-specification:'courier new';fill:#000000;stroke-width:0.26458332"
         id="path4617-3" />
    </g>
    <g
       transform="matrix(7.9067971,0,0,7.9067971,-886.48006,-289.97366)"
       id="text3771-3"
       style="font-style:normal;font-weight:normal;font-size:10.58333302px;line-height:1.25;font-family:sans-serif;letter-spacing:0px;word-spacing:0px;fill:#ffffff;fill-opacity:1;stroke:none;stroke-width:0.26458332"
       aria-label="&gt;">
      <path
         d="m 125.26476,75.514959 -4.69222,2.614827 q -0.11369,0.06201 -0.17054,0.06201 -0.0879,0 -0.15503,-0.06201 -0.062,-0.06718 -0.062,-0.155029 0,-0.129191 0.1757,-0.227376 l 4.02043,-2.232422 -4.01526,-2.232422 q -0.1757,-0.09819 -0.1757,-0.227376 0,-0.08785 0.062,-0.149862 0.0672,-0.06718 0.15503,-0.06718 0.0568,0 0.17053,0.06201 z m -1.79449,-3.912094 -4.69222,2.614827 q -0.11369,0.06201 -0.17053,0.06201 -0.0878,0 -0.15503,-0.06201 -0.062,-0.06718 -0.062,-0.155029 0,-0.129191 0.1757,-0.227377 l 4.02043,-2.232421 -4.01526,-2.232422 q -0.1757,-0.09819 -0.1757,-0.227376 0,-0.08785 0.062,-0.149862 0.0672,-0.06718 0.15503,-0.06718 0.0568,0 0.17054,0.06201 z m -4.6215,-2.479541 3.48816,7.482747 q 0.0517,0.113689 0.0517,0.165365 0,0.08268 -0.0672,0.144694 -0.062,0.06718 -0.14986,0.06718 -0.14469,0 -0.23254,-0.191202 l -3.48816,-7.487915 q -0.0517,-0.108521 -0.0517,-0.165365 0,-0.08268 0.062,-0.144694 0.0672,-0.06201 0.15503,-0.06201 0.13953,0 0.23255,0.191203 z"
         style="font-style:normal;font-variant:normal;font-weight:normal;font-stretch:normal;font-family:'courier new';-inkscape-font-specification:'courier new';fill:#ffffff;stroke-width:0.26458332"
         id="path4617" />
    </g>
  </g>
  <g
     transform="translate(258.37307,-202.24999)"
     id="layer4">
    <g
       id="text4601"
       style="font-style:normal;font-weight:normal;font-size:10.58333302px;line-height:1.25;font-family:sans-serif;letter-spacing:0px;word-spacing:0px;fill:#ffffff;fill-opacity:1;stroke:none;stroke-width:0.26458332"
       aria-label="\" />
    <g
       transform="matrix(7.9067971,0,0,7.9067971,-886.48006,-289.97366)"
       id="text4605-2"
       style="font-style:normal;font-weight:normal;font-size:10.58333302px;line-height:1.25;font-family:sans-serif;letter-spacing:0px;word-spacing:0px;fill:#000000;fill-opacity:1;stroke:none;stroke-width:0.26458332;filter:url(#filter5788)"
       aria-label="&lt;">
      <path
         d="m 138.93401,74.581693 4.69222,-2.614827 q 0.11369,-0.06201 0.17053,-0.06201 0.0879,0 0.14986,0.06718 0.0672,0.06201 0.0672,0.149862 0,0.129191 -0.1757,0.227376 l -4.02042,2.232422 4.01526,2.232422 q 0.1757,0.09819 0.1757,0.227376 0,0.08785 -0.0672,0.155029 -0.062,0.06201 -0.14986,0.06201 -0.0568,0 -0.17054,-0.06201 z m -2.12329,-5.185488 3.48816,7.482747 q 0.0517,0.113688 0.0517,0.165365 0,0.08268 -0.0672,0.144694 -0.062,0.06718 -0.14987,0.06718 -0.14469,0 -0.23254,-0.191203 l -3.48816,-7.487915 q -0.0517,-0.10852 -0.0517,-0.165364 0,-0.08268 0.062,-0.144694 0.0672,-0.06201 0.15503,-0.06201 0.13952,0 0.23254,0.191203 z"
         style="font-style:normal;font-variant:normal;font-weight:normal;font-stretch:normal;font-family:'Courier New';-inkscape-font-specification:'Courier New';fill:#000000;stroke-width:0.26458332"
         id="path4630-1" />
    </g>
    <g
       transform="matrix(7.9067971,0,0,7.9067971,-886.48006,-289.97366)"
       id="text4605-1"
       style="font-style:normal;font-weight:normal;font-size:10.58333302px;line-height:1.25;font-family:sans-serif;letter-spacing:0px;word-spacing:0px;fill:#000000;fill-opacity:1;stroke:none;stroke-width:0.26458332;filter:url(#filter5822)"
       aria-label="&lt;">
      <path
         d="m 138.93401,74.581693 4.69222,-2.614827 q 0.11369,-0.06201 0.17053,-0.06201 0.0879,0 0.14986,0.06718 0.0672,0.06201 0.0672,0.149862 0,0.129191 -0.1757,0.227376 l -4.02042,2.232422 4.01526,2.232422 q 0.1757,0.09819 0.1757,0.227376 0,0.08785 -0.0672,0.155029 -0.062,0.06201 -0.14986,0.06201 -0.0568,0 -0.17054,-0.06201 z m -2.12329,-5.185488 3.48816,7.482747 q 0.0517,0.113688 0.0517,0.165365 0,0.08268 -0.0672,0.144694 -0.062,0.06718 -0.14987,0.06718 -0.14469,0 -0.23254,-0.191203 l -3.48816,-7.487915 q -0.0517,-0.10852 -0.0517,-0.165364 0,-0.08268 0.062,-0.144694 0.0672,-0.06201 0.15503,-0.06201 0.13952,0 0.23254,0.191203 z"
         style="font-style:normal;font-variant:normal;font-weight:normal;font-stretch:normal;font-family:'Courier New';-inkscape-font-specification:'Courier New';fill:#000000;stroke-width:0.26458332"
         id="path4630-8" />
    </g>
    <g
       transform="matrix(7.9067971,0,0,7.9067971,-886.48006,-289.97366)"
       id="text4605-5"
       style="font-style:normal;font-weight:normal;font-size:10.58333302px;line-height:1.25;font-family:sans-serif;letter-spacing:0px;word-spacing:0px;fill:#000000;fill-opacity:1;stroke:none;stroke-width:0.26458332;filter:url(#filter5860)"
       aria-label="&lt;">
      <path
         d="m 138.93401,74.581693 4.69222,-2.614827 q 0.11369,-0.06201 0.17053,-0.06201 0.0879,0 0.14986,0.06718 0.0672,0.06201 0.0672,0.149862 0,0.129191 -0.1757,0.227376 l -4.02042,2.232422 4.01526,2.232422 q 0.1757,0.09819 0.1757,0.227376 0,0.08785 -0.0672,0.155029 -0.062,0.06201 -0.14986,0.06201 -0.0568,0 -0.17054,-0.06201 z m -2.12329,-5.185488 3.48816,7.482747 q 0.0517,0.113688 0.0517,0.165365 0,0.08268 -0.0672,0.144694 -0.062,0.06718 -0.14987,0.06718 -0.14469,0 -0.23254,-0.191203 l -3.48816,-7.487915 q -0.0517,-0.10852 -0.0517,-0.165364 0,-0.08268 0.062,-0.144694 0.0672,-0.06201 0.15503,-0.06201 0.13952,0 0.23254,0.191203 z"
         style="font-style:normal;font-variant:normal;font-weight:normal;font-stretch:normal;font-family:'Courier New';-inkscape-font-specification:'Courier New';fill:#000000;stroke-width:0.26458332"
         id="path4630-4" />
    </g>
    <g
       transform="matrix(7.9067971,0,0,7.9067971,-886.48006,-289.97366)"
       id="text4605"
       style="font-style:normal;font-weight:normal;font-size:10.58333302px;line-height:1.25;font-family:sans-serif;letter-spacing:0px;word-spacing:0px;fill:#ffffff;fill-opacity:1;stroke:none;stroke-width:0.26458332"
       aria-label="&lt;">
      <path
         d="m 138.93401,74.581693 4.69222,-2.614827 q 0.11369,-0.06201 0.17053,-0.06201 0.0879,0 0.14986,0.06718 0.0672,0.06201 0.0672,0.149862 0,0.129191 -0.1757,0.227376 l -4.02042,2.232422 4.01526,2.232422 q 0.1757,0.09819 0.1757,0.227376 0,0.08785 -0.0672,0.155029 -0.062,0.06201 -0.14986,0.06201 -0.0568,0 -0.17054,-0.06201 z m -2.12329,-5.185488 3.48816,7.482747 q 0.0517,0.113688 0.0517,0.165365 0,0.08268 -0.0672,0.144694 -0.062,0.06718 -0.14987,0.06718 -0.14469,0 -0.23254,-0.191203 l -3.48816,-7.487915 q -0.0517,-0.10852 -0.0517,-0.165364 0,-0.08268 0.062,-0.144694 0.0672,-0.06201 0.15503,-0.06201 0.13952,0 0.23254,0.191203 z"
         style="font-style:normal;font-variant:normal;font-weight:normal;font-stretch:normal;font-family:'Courier New';-inkscape-font-specification:'Courier New';fill:#ffffff;stroke-width:0.26458332"
         id="path4630" />
    </g>
  </g>
</svg>
